# xmcd
#
# Track frame offsets: 
#        150
#        13682
#        28154
#        48009
#        67653
#        85492
#        104544
#        122853
#        141837
#        160916
#
# Disc length: 2403 seconds
#
# Revision: 0
# Processed by: cddbd v1.5.2PL0 Copyright (c) Steve Scherf et al.
# Submitted via: ExactAudioCopyFreeDBPlugin 1.0
#
DISCID=8009610a
DTITLE=Colline Hill - Wishes
DYEAR=2011
DGENRE=Folk/Rock
TTITLE0=Someone Left Before Me
TTITLE1=Autumn Girl
TTITLE2=She believes in Me
TTITLE3=From Now
TTITLE4=No more , no Less
TTITLE5=Rassure-Toi
TTITLE6=By You
TTITLE7='Cause I Love
TTITLE8=When you Joined The Sky
TTITLE9=Where you Are
EXTD=
EXTT0=
EXTT1=
EXTT2=
EXTT3=
EXTT4=
EXTT5=
EXTT6=
EXTT7=
EXTT8=
EXTT9=
PLAYORDER=
